<svg width="558" height="227" viewBox="0 0 558 227" fill="none" xmlns="http://www.w3.org/2000/svg">
<g style="mix-blend-mode:overlay" filter="url(#filter0_d_3_13)">
<path d="M4.176 45V4.464H30.528V7.488H7.488V23.04H25.92V25.92H7.488V42.192H31.176V45H4.176ZM40.7597 45L51.4157 29.952L41.1917 15.768H45.0797L53.5037 27.648L61.9997 15.768H65.8877L55.5917 29.952L66.5357 45H62.5757L53.5037 32.328L44.5757 45H40.7597ZM92.9331 45.72C91.0131 45.72 89.3811 45.384 88.0371 44.712C86.6931 44.04 85.5891 43.224 84.7251 42.264C83.8611 41.304 83.1891 40.416 82.7091 39.6C82.2771 38.736 81.9891 38.184 81.8451 37.944H81.7011V56.52H78.3891V15.768H81.1971L81.7731 23.688H81.9171C82.0611 23.352 82.3251 22.776 82.7091 21.96C83.0931 21.096 83.6931 20.184 84.5091 19.224C85.3731 18.264 86.4771 17.448 87.8211 16.776C89.2131 16.104 90.8931 15.768 92.8611 15.768C95.6931 15.768 98.0691 16.44 99.9891 17.784C101.957 19.128 103.445 20.928 104.453 23.184C105.509 25.44 106.037 27.984 106.037 30.816C106.037 33.648 105.509 36.192 104.453 38.448C103.397 40.704 101.885 42.48 99.9171 43.776C97.9971 45.072 95.6691 45.72 92.9331 45.72ZM92.5731 42.624C94.9731 42.624 96.9171 42.072 98.4051 40.968C99.9411 39.816 101.045 38.328 101.717 36.504C102.437 34.632 102.797 32.712 102.797 30.744C102.797 28.728 102.413 26.832 101.645 25.056C100.877 23.232 99.6771 21.768 98.0451 20.664C96.4611 19.512 94.4691 18.936 92.0691 18.936C90.1491 18.936 88.4211 19.416 86.8851 20.376C85.3491 21.288 84.1251 22.632 83.2131 24.408C82.3491 26.136 81.9171 28.248 81.9171 30.744C81.9171 33.24 82.3971 35.4 83.3571 37.224C84.3171 39 85.5891 40.344 87.1731 41.256C88.8051 42.168 90.6051 42.624 92.5731 42.624ZM118.144 45V4.464H121.456V45H118.144ZM146.993 45.72C143.969 45.72 141.425 45.096 139.361 43.848C137.345 42.552 135.833 40.776 134.825 38.52C133.817 36.264 133.313 33.696 133.313 30.816C133.313 27.888 133.817 25.296 134.825 23.04C135.833 20.736 137.345 18.96 139.361 17.712C141.425 16.416 143.969 15.768 146.993 15.768C151.409 15.768 154.769 17.16 157.073 19.944C159.425 22.68 160.601 26.304 160.601 30.816C160.601 33.6 160.121 36.144 159.161 38.448C158.201 40.704 156.713 42.48 154.697 43.776C152.681 45.072 150.113 45.72 146.993 45.72ZM146.993 42.768C149.681 42.768 151.769 42.168 153.257 40.968C154.745 39.768 155.777 38.256 156.353 36.432C156.977 34.56 157.289 32.664 157.289 30.744C157.289 28.776 156.977 26.88 156.353 25.056C155.777 23.184 154.745 21.648 153.257 20.448C151.769 19.248 149.681 18.648 146.993 18.648C144.353 18.648 142.265 19.248 140.729 20.448C139.193 21.648 138.113 23.184 137.489 25.056C136.913 26.88 136.625 28.776 136.625 30.744C136.625 32.664 136.913 34.56 137.489 36.432C138.113 38.256 139.193 39.768 140.729 40.968C142.265 42.168 144.353 42.768 146.993 42.768ZM173.455 45V15.768H176.263L176.767 24.192L176.695 30.456V45H173.455ZM176.695 30.888L176.479 24.552C176.575 23.4 176.863 22.296 177.343 21.24C177.871 20.184 178.591 19.248 179.503 18.432C180.463 17.616 181.591 16.968 182.887 16.488C184.231 16.008 185.791 15.768 187.567 15.768H189.151V19.44H187.567C185.119 19.44 183.151 19.752 181.663 20.376C180.223 20.952 179.143 21.768 178.423 22.824C177.703 23.832 177.223 25.032 176.983 26.424C176.791 27.816 176.695 29.304 176.695 30.888ZM211.449 45.72C208.329 45.72 205.737 44.976 203.673 43.488C201.657 42 200.145 40.104 199.137 37.8C198.129 35.448 197.649 33.024 197.697 30.528C197.697 27.936 198.225 25.512 199.281 23.256C200.337 21 201.873 19.2 203.889 17.856C205.953 16.464 208.449 15.768 211.377 15.768C213.825 15.768 215.985 16.32 217.857 17.424C219.777 18.48 221.313 19.992 222.465 21.96C223.617 23.88 224.265 26.184 224.409 28.872C224.457 29.112 224.481 29.4 224.481 29.736C224.481 30.072 224.481 30.384 224.481 30.672H200.865C200.865 34.368 201.777 37.32 203.601 39.528C205.473 41.736 208.089 42.84 211.449 42.84C213.897 42.84 216.009 42.192 217.785 40.896C219.609 39.6 220.737 37.848 221.169 35.64H224.409C224.073 37.608 223.305 39.36 222.105 40.896C220.905 42.384 219.393 43.56 217.569 44.424C215.745 45.288 213.705 45.72 211.449 45.72ZM201.081 28.512H221.097C221.049 27.6 220.833 26.592 220.449 25.488C220.113 24.336 219.561 23.232 218.793 22.176C218.025 21.12 217.017 20.256 215.769 19.584C214.569 18.912 213.105 18.576 211.377 18.576C209.793 18.576 208.401 18.864 207.201 19.44C206.001 19.968 204.969 20.688 204.105 21.6C203.289 22.512 202.617 23.568 202.089 24.768C201.609 25.92 201.273 27.168 201.081 28.512ZM271.503 45.72C270.543 45.72 269.439 45.552 268.191 45.216C266.943 44.928 265.719 44.424 264.519 43.704C263.367 42.984 262.407 41.928 261.639 40.536C260.871 39.144 260.487 37.368 260.487 35.208H263.511C263.511 36.312 263.727 37.464 264.159 38.664C264.591 39.816 265.383 40.8 266.535 41.616C267.735 42.432 269.391 42.84 271.503 42.84C274.143 42.84 276.087 42.144 277.335 40.752C278.631 39.36 279.279 37.056 279.279 33.84V5.76H282.519V33.552C282.519 35.472 282.303 37.2 281.871 38.736C281.439 40.224 280.767 41.496 279.855 42.552C278.991 43.608 277.863 44.4 276.471 44.928C275.127 45.456 273.471 45.72 271.503 45.72ZM271.431 7.272V4.536H282.519V7.272H271.431ZM308.829 45.72C305.805 45.72 303.261 45.096 301.197 43.848C299.181 42.552 297.669 40.776 296.661 38.52C295.653 36.264 295.149 33.696 295.149 30.816C295.149 27.888 295.653 25.296 296.661 23.04C297.669 20.736 299.181 18.96 301.197 17.712C303.261 16.416 305.805 15.768 308.829 15.768C313.245 15.768 316.605 17.16 318.909 19.944C321.261 22.68 322.437 26.304 322.437 30.816C322.437 33.6 321.957 36.144 320.997 38.448C320.037 40.704 318.549 42.48 316.533 43.776C314.517 45.072 311.949 45.72 308.829 45.72ZM308.829 42.768C311.517 42.768 313.605 42.168 315.093 40.968C316.581 39.768 317.613 38.256 318.189 36.432C318.813 34.56 319.125 32.664 319.125 30.744C319.125 28.776 318.813 26.88 318.189 25.056C317.613 23.184 316.581 21.648 315.093 20.448C313.605 19.248 311.517 18.648 308.829 18.648C306.189 18.648 304.101 19.248 302.565 20.448C301.029 21.648 299.949 23.184 299.325 25.056C298.749 26.88 298.461 28.776 298.461 30.744C298.461 32.664 298.749 34.56 299.325 36.432C299.949 38.256 301.029 39.768 302.565 40.968C304.101 42.168 306.189 42.768 308.829 42.768ZM341.051 56.52V53.424H356.459V37.944H356.315C356.219 38.184 355.931 38.736 355.451 39.6C355.019 40.416 354.347 41.304 353.435 42.264C352.571 43.224 351.467 44.04 350.123 44.712C348.779 45.384 347.147 45.72 345.227 45.72C342.443 45.72 340.067 45.048 338.099 43.704C336.179 42.36 334.715 40.56 333.707 38.304C332.699 36.048 332.195 33.528 332.195 30.744C332.195 27.912 332.699 25.368 333.707 23.112C334.715 20.808 336.203 19.008 338.171 17.712C340.139 16.416 342.515 15.768 345.299 15.768C347.267 15.768 348.923 16.104 350.267 16.776C351.659 17.448 352.763 18.264 353.579 19.224C354.443 20.184 355.067 21.096 355.451 21.96C355.883 22.776 356.147 23.352 356.243 23.688H356.387V15.768H359.843V51.264C359.843 52.32 359.723 53.232 359.483 54C359.243 54.816 358.811 55.44 358.187 55.872C357.611 56.304 356.747 56.52 355.595 56.52H341.051ZM345.659 42.624C347.627 42.624 349.403 42.168 350.987 41.256C352.619 40.344 353.915 39 354.875 37.224C355.835 35.4 356.315 33.24 356.315 30.744C356.315 28.248 355.859 26.136 354.947 24.408C354.035 22.632 352.811 21.288 351.275 20.376C349.787 19.416 348.059 18.936 346.091 18.936C343.691 18.936 341.699 19.512 340.115 20.664C338.531 21.768 337.355 23.232 336.587 25.056C335.819 26.832 335.435 28.728 335.435 30.744C335.435 32.712 335.771 34.632 336.443 36.504C337.163 38.328 338.267 39.816 339.755 40.968C341.291 42.072 343.259 42.624 345.659 42.624ZM385.235 45.72C382.211 45.72 379.667 45.096 377.603 43.848C375.587 42.552 374.075 40.776 373.067 38.52C372.059 36.264 371.555 33.696 371.555 30.816C371.555 27.888 372.059 25.296 373.067 23.04C374.075 20.736 375.587 18.96 377.603 17.712C379.667 16.416 382.211 15.768 385.235 15.768C389.651 15.768 393.011 17.16 395.315 19.944C397.667 22.68 398.843 26.304 398.843 30.816C398.843 33.6 398.363 36.144 397.403 38.448C396.443 40.704 394.955 42.48 392.939 43.776C390.923 45.072 388.355 45.72 385.235 45.72ZM385.235 42.768C387.923 42.768 390.011 42.168 391.499 40.968C392.987 39.768 394.019 38.256 394.595 36.432C395.219 34.56 395.531 32.664 395.531 30.744C395.531 28.776 395.219 26.88 394.595 25.056C394.019 23.184 392.987 21.648 391.499 20.448C390.011 19.248 387.923 18.648 385.235 18.648C382.595 18.648 380.507 19.248 378.971 20.448C377.435 21.648 376.355 23.184 375.731 25.056C375.155 26.88 374.867 28.776 374.867 30.744C374.867 32.664 375.155 34.56 375.731 36.432C376.355 38.256 377.435 39.768 378.971 40.968C380.507 42.168 382.595 42.768 385.235 42.768ZM422.353 45.72C420.385 45.72 418.705 45.456 417.313 44.928C415.921 44.352 414.769 43.632 413.857 42.768C412.945 41.904 412.225 41.016 411.697 40.104C411.169 39.192 410.785 38.352 410.545 37.584C410.353 36.816 410.257 36.24 410.257 35.856H413.497C413.497 35.904 413.545 36.312 413.641 37.08C413.785 37.8 414.121 38.64 414.649 39.6C415.225 40.56 416.113 41.4 417.313 42.12C418.513 42.792 420.193 43.128 422.353 43.128C423.937 43.128 425.377 42.96 426.673 42.624C427.969 42.24 429.001 41.664 429.769 40.896C430.537 40.08 430.921 39.024 430.921 37.728C430.921 36.192 430.417 35.016 429.409 34.2C428.449 33.336 427.201 32.712 425.665 32.328C424.129 31.896 422.521 31.512 420.841 31.176C419.161 30.792 417.553 30.312 416.017 29.736C414.529 29.16 413.305 28.32 412.345 27.216C411.433 26.112 410.977 24.6 410.977 22.68C411.025 20.376 412.105 18.528 414.217 17.136C416.329 15.696 419.041 14.976 422.353 14.976C423.601 14.976 424.921 15.12 426.313 15.408C427.705 15.696 428.977 16.2 430.129 16.92C431.329 17.64 432.289 18.624 433.009 19.872C433.777 21.12 434.089 22.752 433.945 24.768H430.777C430.825 23.28 430.561 22.08 429.985 21.168C429.457 20.256 428.713 19.56 427.753 19.08C426.841 18.552 425.881 18.216 424.873 18.072C423.865 17.928 422.953 17.856 422.137 17.856C419.881 17.856 417.961 18.264 416.377 19.08C414.841 19.896 414.073 21.144 414.073 22.824C414.073 24.216 414.553 25.296 415.513 26.064C416.473 26.832 417.721 27.432 419.257 27.864C420.793 28.248 422.401 28.608 424.081 28.944C425.761 29.28 427.369 29.76 428.905 30.384C430.441 31.008 431.689 31.896 432.649 33.048C433.609 34.2 434.089 35.808 434.089 37.872C434.089 39.744 433.561 41.256 432.505 42.408C431.497 43.56 430.105 44.4 428.329 44.928C426.553 45.456 424.561 45.72 422.353 45.72ZM482.707 45.72C479.923 45.72 477.547 45.048 475.579 43.704C473.659 42.36 472.195 40.56 471.187 38.304C470.179 36.048 469.675 33.528 469.675 30.744C469.675 27.912 470.179 25.368 471.187 23.112C472.243 20.856 473.731 19.08 475.651 17.784C477.619 16.44 479.995 15.768 482.779 15.768C484.747 15.768 486.427 16.104 487.819 16.776C489.211 17.448 490.315 18.264 491.131 19.224C491.947 20.184 492.547 21.096 492.931 21.96C493.363 22.776 493.651 23.352 493.795 23.688H493.939V4.464H497.323V45H494.587L494.011 37.944H493.867C493.723 38.184 493.411 38.736 492.931 39.6C492.499 40.416 491.851 41.304 490.987 42.264C490.123 43.224 488.995 44.04 487.603 44.712C486.259 45.384 484.627 45.72 482.707 45.72ZM483.139 42.624C485.107 42.624 486.883 42.168 488.467 41.256C490.099 40.344 491.395 39 492.355 37.224C493.315 35.4 493.795 33.24 493.795 30.744C493.795 28.248 493.339 26.136 492.427 24.408C491.563 22.632 490.363 21.288 488.827 20.376C487.291 19.416 485.563 18.936 483.643 18.936C481.243 18.936 479.251 19.512 477.667 20.664C476.083 21.768 474.883 23.232 474.067 25.056C473.299 26.832 472.915 28.728 472.915 30.744C472.915 32.712 473.251 34.632 473.923 36.504C474.643 38.328 475.747 39.816 477.235 40.968C478.771 42.072 480.739 42.624 483.139 42.624ZM522.442 45.72C519.322 45.72 516.73 44.976 514.666 43.488C512.65 42 511.138 40.104 510.13 37.8C509.122 35.448 508.642 33.024 508.69 30.528C508.69 27.936 509.218 25.512 510.274 23.256C511.33 21 512.866 19.2 514.882 17.856C516.946 16.464 519.442 15.768 522.37 15.768C524.818 15.768 526.978 16.32 528.85 17.424C530.77 18.48 532.306 19.992 533.458 21.96C534.61 23.88 535.258 26.184 535.402 28.872C535.45 29.112 535.474 29.4 535.474 29.736C535.474 30.072 535.474 30.384 535.474 30.672H511.858C511.858 34.368 512.77 37.32 514.594 39.528C516.466 41.736 519.082 42.84 522.442 42.84C524.89 42.84 527.002 42.192 528.778 40.896C530.602 39.6 531.73 37.848 532.162 35.64H535.402C535.066 37.608 534.298 39.36 533.098 40.896C531.898 42.384 530.386 43.56 528.562 44.424C526.738 45.288 524.698 45.72 522.442 45.72ZM512.074 28.512H532.09C532.042 27.6 531.826 26.592 531.442 25.488C531.106 24.336 530.554 23.232 529.786 22.176C529.018 21.12 528.01 20.256 526.762 19.584C525.562 18.912 524.098 18.576 522.37 18.576C520.786 18.576 519.394 18.864 518.194 19.44C516.994 19.968 515.962 20.688 515.098 21.6C514.282 22.512 513.61 23.568 513.082 24.768C512.602 25.92 512.266 27.168 512.074 28.512ZM22.104 121.008C15.768 121.008 10.944 119.112 7.632 115.32C4.32 111.48 2.664 106.32 2.664 99.84C2.664 95.568 3.36 91.872 4.752 88.752C6.192 85.584 8.352 83.136 11.232 81.408C14.112 79.632 17.736 78.744 22.104 78.744C26.376 78.744 29.928 79.608 32.76 81.336C35.64 83.064 37.8 85.512 39.24 88.68C40.728 91.8 41.472 95.472 41.472 99.696C41.472 103.92 40.728 107.64 39.24 110.856C37.8 114.024 35.64 116.52 32.76 118.344C29.928 120.12 26.376 121.008 22.104 121.008ZM26.28 127.848C25.608 127.848 24.936 127.728 24.264 127.488C23.592 127.296 22.968 126.936 22.392 126.408C21.864 125.928 21.456 125.208 21.168 124.248C20.88 123.288 20.736 122.04 20.736 120.504V118.704H23.76V120.36C23.76 120.936 23.784 121.584 23.832 122.304C23.928 123.072 24.192 123.72 24.624 124.248C25.056 124.776 25.776 125.04 26.784 125.04C27.648 125.04 28.392 124.8 29.016 124.32C29.64 123.84 30.024 123.6 30.168 123.6L30.6 126.192C30.6 126.192 30.456 126.264 30.168 126.408C29.928 126.6 29.592 126.792 29.16 126.984C28.728 127.224 28.248 127.416 27.72 127.56C27.24 127.752 26.76 127.848 26.28 127.848ZM22.032 117.84C27.408 117.84 31.44 116.208 34.128 112.944C36.816 109.68 38.16 105.288 38.16 99.768C38.16 94.296 36.84 89.928 34.2 86.664C31.56 83.4 27.504 81.768 22.032 81.768C16.752 81.768 12.744 83.352 10.008 86.52C7.272 89.64 5.904 94.032 5.904 99.696C5.904 105.216 7.224 109.632 9.864 112.944C12.552 116.208 16.608 117.84 22.032 117.84ZM63.7024 120.72C61.8784 120.72 60.2944 120.456 58.9504 119.928C57.6544 119.4 56.5744 118.68 55.7104 117.768C54.8464 116.808 54.1744 115.728 53.6944 114.528C53.2144 113.28 52.8784 111.936 52.6864 110.496C52.4944 109.056 52.3984 107.568 52.3984 106.032V90.768H55.6384V106.032C55.6384 108.192 55.8544 110.16 56.2864 111.936C56.7664 113.712 57.6544 115.128 58.9504 116.184C60.2464 117.192 62.0944 117.696 64.4944 117.696C66.7984 117.696 68.6224 117.168 69.9664 116.112C71.3584 115.008 72.3904 113.616 73.0624 111.936C73.7344 110.208 74.1184 108.384 74.2144 106.464V90.768H77.5984V120H74.8624L74.2864 113.016H74.1424C73.9024 113.784 73.5184 114.6 72.9904 115.464C72.4624 116.328 71.7664 117.168 70.9024 117.984C70.0864 118.8 69.0784 119.472 67.8784 120C66.6784 120.48 65.2864 120.72 63.7024 120.72ZM100.481 120.648C97.7927 120.648 95.5607 119.976 93.7847 118.632C92.0087 117.288 90.6887 115.488 89.8247 113.232C88.9607 110.928 88.5287 108.384 88.5287 105.6C88.5287 102.672 88.9607 100.08 89.8247 97.824C90.7367 95.568 92.0807 93.792 93.8567 92.496C95.6807 91.152 97.8887 90.48 100.481 90.48C101.921 90.48 103.193 90.672 104.297 91.056C105.401 91.44 106.385 91.944 107.249 92.568C108.113 93.192 108.833 93.912 109.409 94.728C110.033 95.496 110.513 96.336 110.849 97.248H110.921V90.768H114.305V120H111.569L110.993 113.952H110.849C110.465 114.816 109.961 115.656 109.337 116.472C108.761 117.24 108.041 117.96 107.177 118.632C106.313 119.256 105.329 119.736 104.225 120.072C103.121 120.456 101.873 120.648 100.481 120.648ZM101.705 117.624C103.769 117.624 105.473 117.144 106.817 116.184C108.209 115.224 109.241 113.856 109.913 112.08C110.585 110.256 110.921 108.12 110.921 105.672C110.921 102.984 110.561 100.776 109.841 99.048C109.121 97.272 108.065 95.928 106.673 95.016C105.329 94.104 103.673 93.648 101.705 93.648C99.4487 93.648 97.5767 94.176 96.0887 95.232C94.6487 96.288 93.5687 97.704 92.8487 99.48C92.1767 101.256 91.8407 103.296 91.8407 105.6C91.8407 107.952 92.2007 110.04 92.9207 111.864C93.6407 113.688 94.7207 115.104 96.1607 116.112C97.6487 117.12 99.4967 117.624 101.705 117.624ZM126.863 120V79.464H130.175V120H126.863ZM143.832 120V90.768H147.144V120H143.832ZM145.56 86.088C144.6 86.088 143.928 85.848 143.544 85.368C143.208 84.84 143.04 84.24 143.04 83.568C143.04 82.896 143.208 82.32 143.544 81.84C143.928 81.36 144.6 81.12 145.56 81.12C146.568 81.12 147.216 81.36 147.504 81.84C147.84 82.32 148.008 82.896 148.008 83.568C148.008 84.24 147.84 84.84 147.504 85.368C147.216 85.848 146.568 86.088 145.56 86.088ZM173.543 120.72C170.759 120.72 168.383 120.048 166.415 118.704C164.495 117.36 163.031 115.56 162.023 113.304C161.015 111.048 160.511 108.528 160.511 105.744C160.511 102.912 161.015 100.368 162.023 98.112C163.079 95.856 164.567 94.08 166.487 92.784C168.455 91.44 170.831 90.768 173.615 90.768C175.583 90.768 177.263 91.104 178.655 91.776C180.047 92.448 181.151 93.264 181.967 94.224C182.783 95.184 183.383 96.096 183.767 96.96C184.199 97.776 184.487 98.352 184.631 98.688H184.775V79.464H188.159V120H185.423L184.847 112.944H184.703C184.559 113.184 184.247 113.736 183.767 114.6C183.335 115.416 182.687 116.304 181.823 117.264C180.959 118.224 179.831 119.04 178.439 119.712C177.095 120.384 175.463 120.72 173.543 120.72ZM173.975 117.624C175.943 117.624 177.719 117.168 179.303 116.256C180.935 115.344 182.231 114 183.191 112.224C184.151 110.4 184.631 108.24 184.631 105.744C184.631 103.248 184.175 101.136 183.263 99.408C182.399 97.632 181.199 96.288 179.663 95.376C178.127 94.416 176.399 93.936 174.479 93.936C172.079 93.936 170.087 94.512 168.503 95.664C166.919 96.768 165.719 98.232 164.903 100.056C164.135 101.832 163.751 103.728 163.751 105.744C163.751 107.712 164.087 109.632 164.759 111.504C165.479 113.328 166.583 114.816 168.071 115.968C169.607 117.072 171.575 117.624 173.975 117.624ZM210.614 120.648C207.926 120.648 205.694 119.976 203.918 118.632C202.142 117.288 200.822 115.488 199.958 113.232C199.094 110.928 198.662 108.384 198.662 105.6C198.662 102.672 199.094 100.08 199.958 97.824C200.87 95.568 202.214 93.792 203.99 92.496C205.814 91.152 208.022 90.48 210.614 90.48C212.054 90.48 213.326 90.672 214.43 91.056C215.534 91.44 216.518 91.944 217.382 92.568C218.246 93.192 218.966 93.912 219.542 94.728C220.166 95.496 220.646 96.336 220.982 97.248H221.054V90.768H224.438V120H221.702L221.126 113.952H220.982C220.598 114.816 220.094 115.656 219.47 116.472C218.894 117.24 218.174 117.96 217.31 118.632C216.446 119.256 215.462 119.736 214.358 120.072C213.254 120.456 212.006 120.648 210.614 120.648ZM211.838 117.624C213.902 117.624 215.606 117.144 216.95 116.184C218.342 115.224 219.374 113.856 220.046 112.08C220.718 110.256 221.054 108.12 221.054 105.672C221.054 102.984 220.694 100.776 219.974 99.048C219.254 97.272 218.198 95.928 216.806 95.016C215.462 94.104 213.806 93.648 211.838 93.648C209.582 93.648 207.71 94.176 206.222 95.232C204.782 96.288 203.702 97.704 202.982 99.48C202.31 101.256 201.974 103.296 201.974 105.6C201.974 107.952 202.334 110.04 203.054 111.864C203.774 113.688 204.854 115.104 206.294 116.112C207.782 117.12 209.63 117.624 211.838 117.624ZM249.668 120.72C246.884 120.72 244.508 120.048 242.54 118.704C240.62 117.36 239.156 115.56 238.148 113.304C237.14 111.048 236.636 108.528 236.636 105.744C236.636 102.912 237.14 100.368 238.148 98.112C239.204 95.856 240.692 94.08 242.612 92.784C244.58 91.44 246.956 90.768 249.74 90.768C251.708 90.768 253.388 91.104 254.78 91.776C256.172 92.448 257.276 93.264 258.092 94.224C258.908 95.184 259.508 96.096 259.892 96.96C260.324 97.776 260.612 98.352 260.756 98.688H260.9V79.464H264.284V120H261.548L260.972 112.944H260.828C260.684 113.184 260.372 113.736 259.892 114.6C259.46 115.416 258.812 116.304 257.948 117.264C257.084 118.224 255.956 119.04 254.564 119.712C253.22 120.384 251.588 120.72 249.668 120.72ZM250.1 117.624C252.068 117.624 253.844 117.168 255.428 116.256C257.06 115.344 258.356 114 259.316 112.224C260.276 110.4 260.756 108.24 260.756 105.744C260.756 103.248 260.3 101.136 259.388 99.408C258.524 97.632 257.324 96.288 255.788 95.376C254.252 94.416 252.524 93.936 250.604 93.936C248.204 93.936 246.212 94.512 244.628 95.664C243.044 96.768 241.844 98.232 241.028 100.056C240.26 101.832 239.876 103.728 239.876 105.744C239.876 107.712 240.212 109.632 240.884 111.504C241.604 113.328 242.708 114.816 244.196 115.968C245.732 117.072 247.7 117.624 250.1 117.624ZM289.403 120.72C286.283 120.72 283.691 119.976 281.627 118.488C279.611 117 278.099 115.104 277.091 112.8C276.083 110.448 275.603 108.024 275.651 105.528C275.651 102.936 276.179 100.512 277.235 98.256C278.291 96 279.827 94.2 281.843 92.856C283.907 91.464 286.403 90.768 289.331 90.768C291.779 90.768 293.939 91.32 295.811 92.424C297.731 93.48 299.267 94.992 300.419 96.96C301.571 98.88 302.219 101.184 302.363 103.872C302.411 104.112 302.435 104.4 302.435 104.736C302.435 105.072 302.435 105.384 302.435 105.672H278.819C278.819 109.368 279.731 112.32 281.555 114.528C283.427 116.736 286.043 117.84 289.403 117.84C291.851 117.84 293.963 117.192 295.739 115.896C297.563 114.6 298.691 112.848 299.123 110.64H302.363C302.027 112.608 301.259 114.36 300.059 115.896C298.859 117.384 297.347 118.56 295.523 119.424C293.699 120.288 291.659 120.72 289.403 120.72ZM279.035 103.512H299.051C299.003 102.6 298.787 101.592 298.403 100.488C298.067 99.336 297.515 98.232 296.747 97.176C295.979 96.12 294.971 95.256 293.723 94.584C292.523 93.912 291.059 93.576 289.331 93.576C287.747 93.576 286.355 93.864 285.155 94.44C283.955 94.968 282.923 95.688 282.059 96.6C281.243 97.512 280.571 98.568 280.043 99.768C279.563 100.92 279.227 102.168 279.035 103.512ZM351.184 120.72C348.064 120.72 345.472 119.976 343.408 118.488C341.392 117 339.88 115.104 338.872 112.8C337.864 110.448 337.384 108.024 337.432 105.528C337.432 102.936 337.96 100.512 339.016 98.256C340.072 96 341.608 94.2 343.624 92.856C345.688 91.464 348.184 90.768 351.112 90.768C353.56 90.768 355.72 91.32 357.592 92.424C359.512 93.48 361.048 94.992 362.2 96.96C363.352 98.88 364 101.184 364.144 103.872C364.192 104.112 364.216 104.4 364.216 104.736C364.216 105.072 364.216 105.384 364.216 105.672H340.6C340.6 109.368 341.512 112.32 343.336 114.528C345.208 116.736 347.824 117.84 351.184 117.84C353.632 117.84 355.744 117.192 357.52 115.896C359.344 114.6 360.472 112.848 360.904 110.64H364.144C363.808 112.608 363.04 114.36 361.84 115.896C360.64 117.384 359.128 118.56 357.304 119.424C355.48 120.288 353.44 120.72 351.184 120.72ZM340.816 103.512H360.832C360.784 102.6 360.568 101.592 360.184 100.488C359.848 99.336 359.296 98.232 358.528 97.176C357.76 96.12 356.752 95.256 355.504 94.584C354.304 93.912 352.84 93.576 351.112 93.576C349.528 93.576 348.136 93.864 346.936 94.44C345.736 94.968 344.704 95.688 343.84 96.6C343.024 97.512 342.352 98.568 341.824 99.768C341.344 100.92 341.008 102.168 340.816 103.512ZM376.214 120V90.768H379.094L379.454 98.544H379.598C379.694 98.112 379.91 97.488 380.246 96.672C380.63 95.808 381.182 94.944 381.902 94.08C382.67 93.168 383.63 92.4 384.782 91.776C385.982 91.104 387.494 90.768 389.318 90.768C391.19 90.768 392.726 91.152 393.926 91.92C395.126 92.688 396.038 93.672 396.662 94.872C397.334 96.024 397.814 97.248 398.102 98.544H398.246C398.39 98.112 398.654 97.488 399.038 96.672C399.47 95.808 400.07 94.92 400.838 94.008C401.654 93.096 402.686 92.328 403.934 91.704C405.182 91.08 406.718 90.768 408.542 90.768C410.414 90.768 411.95 91.152 413.15 91.92C414.398 92.688 415.358 93.672 416.03 94.872C416.75 96.024 417.254 97.272 417.542 98.616C417.878 99.96 418.07 101.256 418.118 102.504C418.214 103.752 418.262 104.76 418.262 105.528V120H415.022V105.528C415.022 104.664 414.974 103.584 414.878 102.288C414.83 100.992 414.566 99.696 414.086 98.4C413.654 97.104 412.934 96.024 411.926 95.16C410.918 94.248 409.502 93.792 407.678 93.792C405.662 93.792 404.006 94.368 402.71 95.52C401.414 96.672 400.43 98.184 399.758 100.056C399.134 101.928 398.822 103.968 398.822 106.176V120H395.654V105.528C395.654 104.664 395.606 103.584 395.51 102.288C395.414 100.992 395.15 99.696 394.718 98.4C394.286 97.104 393.566 96.024 392.558 95.16C391.55 94.248 390.134 93.792 388.31 93.792C386.294 93.792 384.614 94.368 383.27 95.52C381.974 96.672 381.014 98.184 380.39 100.056C379.766 101.928 379.454 103.968 379.454 106.176V120H376.214ZM465.046 120.72C463.222 120.72 461.638 120.456 460.294 119.928C458.998 119.4 457.918 118.68 457.054 117.768C456.19 116.808 455.518 115.728 455.038 114.528C454.558 113.28 454.222 111.936 454.03 110.496C453.838 109.056 453.742 107.568 453.742 106.032V90.768H456.982V106.032C456.982 108.192 457.198 110.16 457.63 111.936C458.11 113.712 458.998 115.128 460.294 116.184C461.59 117.192 463.438 117.696 465.838 117.696C468.142 117.696 469.966 117.168 471.31 116.112C472.702 115.008 473.734 113.616 474.406 111.936C475.078 110.208 475.462 108.384 475.558 106.464V90.768H478.942V120H476.206L475.63 113.016H475.486C475.246 113.784 474.862 114.6 474.334 115.464C473.806 116.328 473.11 117.168 472.246 117.984C471.43 118.8 470.422 119.472 469.222 120C468.022 120.48 466.63 120.72 465.046 120.72ZM491.456 120V90.768H494.336L494.696 98.544H494.84C494.936 98.112 495.152 97.488 495.488 96.672C495.872 95.808 496.424 94.944 497.144 94.08C497.912 93.168 498.872 92.4 500.024 91.776C501.224 91.104 502.736 90.768 504.56 90.768C506.432 90.768 507.968 91.152 509.168 91.92C510.368 92.688 511.28 93.672 511.904 94.872C512.576 96.024 513.056 97.248 513.344 98.544H513.488C513.632 98.112 513.896 97.488 514.28 96.672C514.712 95.808 515.312 94.92 516.08 94.008C516.896 93.096 517.928 92.328 519.176 91.704C520.424 91.08 521.96 90.768 523.784 90.768C525.656 90.768 527.192 91.152 528.392 91.92C529.64 92.688 530.6 93.672 531.272 94.872C531.992 96.024 532.496 97.272 532.784 98.616C533.12 99.96 533.312 101.256 533.36 102.504C533.456 103.752 533.504 104.76 533.504 105.528V120H530.264V105.528C530.264 104.664 530.216 103.584 530.12 102.288C530.072 100.992 529.808 99.696 529.328 98.4C528.896 97.104 528.176 96.024 527.168 95.16C526.16 94.248 524.744 93.792 522.92 93.792C520.904 93.792 519.248 94.368 517.952 95.52C516.656 96.672 515.672 98.184 515 100.056C514.376 101.928 514.064 103.968 514.064 106.176V120H510.896V105.528C510.896 104.664 510.848 103.584 510.752 102.288C510.656 100.992 510.392 99.696 509.96 98.4C509.528 97.104 508.808 96.024 507.8 95.16C506.792 94.248 505.376 93.792 503.552 93.792C501.536 93.792 499.856 94.368 498.512 95.52C497.216 96.672 496.256 98.184 495.632 100.056C495.008 101.928 494.696 103.968 494.696 106.176V120H491.456ZM19.152 195.936C17.04 195.936 15 195.672 13.032 195.144C11.064 194.664 9.264 193.896 7.632 192.84C6 191.736 4.704 190.368 3.744 188.736C2.784 187.056 2.28 185.04 2.232 182.688H5.544C5.544 182.832 5.592 183.264 5.688 183.984C5.784 184.704 6.024 185.568 6.408 186.576C6.84 187.584 7.536 188.568 8.496 189.528C9.504 190.488 10.872 191.304 12.6 191.976C14.376 192.6 16.632 192.912 19.368 192.912C21.864 192.912 23.856 192.624 25.344 192.048C26.88 191.424 28.032 190.68 28.8 189.816C29.568 188.904 30.072 188.04 30.312 187.224C30.6 186.408 30.744 185.784 30.744 185.352C30.792 183.528 30.336 182.064 29.376 180.96C28.416 179.808 27.12 178.896 25.488 178.224C23.856 177.504 22.08 176.904 20.16 176.424C18.24 175.944 16.296 175.44 14.328 174.912C12.408 174.336 10.632 173.64 9 172.824C7.368 171.96 6.072 170.832 5.112 169.44C4.2 168 3.792 166.152 3.888 163.896C3.984 161.784 4.704 159.984 6.048 158.496C7.44 156.96 9.264 155.784 11.52 154.968C13.824 154.152 16.344 153.744 19.08 153.744C21.816 153.744 24.288 154.248 26.496 155.256C28.752 156.216 30.528 157.656 31.824 159.576C33.168 161.448 33.792 163.824 33.696 166.704H30.456C30.552 164.688 30.192 163.032 29.376 161.736C28.56 160.44 27.528 159.432 26.28 158.712C25.032 157.992 23.736 157.512 22.392 157.272C21.048 156.984 19.848 156.84 18.792 156.84C15.48 156.84 12.744 157.536 10.584 158.928C8.472 160.272 7.368 162 7.272 164.112C7.224 165.936 7.68 167.4 8.64 168.504C9.6 169.608 10.896 170.496 12.528 171.168C14.16 171.792 15.936 172.344 17.856 172.824C19.824 173.304 21.768 173.808 23.688 174.336C25.608 174.864 27.36 175.56 28.944 176.424C30.576 177.288 31.848 178.464 32.76 179.952C33.72 181.392 34.176 183.264 34.128 185.568C34.032 187.776 33.312 189.648 31.968 191.184C30.624 192.72 28.848 193.896 26.64 194.712C24.432 195.528 21.936 195.936 19.152 195.936ZM58.4694 195.72C55.4454 195.72 52.9014 195.096 50.8374 193.848C48.8214 192.552 47.3094 190.776 46.3014 188.52C45.2934 186.264 44.7894 183.696 44.7894 180.816C44.7894 177.888 45.2934 175.296 46.3014 173.04C47.3094 170.736 48.8214 168.96 50.8374 167.712C52.9014 166.416 55.4454 165.768 58.4694 165.768C62.8854 165.768 66.2454 167.16 68.5494 169.944C70.9014 172.68 72.0774 176.304 72.0774 180.816C72.0774 183.6 71.5974 186.144 70.6374 188.448C69.6774 190.704 68.1894 192.48 66.1734 193.776C64.1574 195.072 61.5894 195.72 58.4694 195.72ZM58.4694 192.768C61.1574 192.768 63.2454 192.168 64.7334 190.968C66.2214 189.768 67.2534 188.256 67.8294 186.432C68.4534 184.56 68.7654 182.664 68.7654 180.744C68.7654 178.776 68.4534 176.88 67.8294 175.056C67.2534 173.184 66.2214 171.648 64.7334 170.448C63.2454 169.248 61.1574 168.648 58.4694 168.648C55.8294 168.648 53.7414 169.248 52.2054 170.448C50.6694 171.648 49.5894 173.184 48.9654 175.056C48.3894 176.88 48.1014 178.776 48.1014 180.744C48.1014 182.664 48.3894 184.56 48.9654 186.432C49.5894 188.256 50.6694 189.768 52.2054 190.968C53.7414 192.168 55.8294 192.768 58.4694 192.768ZM59.7654 162.816H58.0374V162.24L61.9254 154.752H65.0934V155.688L59.7654 162.816ZM109.802 194.136V154.464H113.042V194.136H109.802ZM109.802 195V192.12H136.802V195H109.802ZM158.413 195.72C156.589 195.72 155.005 195.456 153.661 194.928C152.365 194.4 151.285 193.68 150.421 192.768C149.557 191.808 148.885 190.728 148.405 189.528C147.925 188.28 147.589 186.936 147.397 185.496C147.205 184.056 147.109 182.568 147.109 181.032V165.768H150.349V181.032C150.349 183.192 150.565 185.16 150.997 186.936C151.477 188.712 152.365 190.128 153.661 191.184C154.957 192.192 156.805 192.696 159.205 192.696C161.509 192.696 163.333 192.168 164.677 191.112C166.069 190.008 167.101 188.616 167.773 186.936C168.445 185.208 168.829 183.384 168.925 181.464V165.768H172.309V195H169.573L168.997 188.016H168.853C168.613 188.784 168.229 189.6 167.701 190.464C167.173 191.328 166.477 192.168 165.613 192.984C164.797 193.8 163.789 194.472 162.589 195C161.389 195.48 159.997 195.72 158.413 195.72ZM191.52 206.52V203.424H206.928V187.944H206.784C206.688 188.184 206.4 188.736 205.92 189.6C205.488 190.416 204.816 191.304 203.904 192.264C203.04 193.224 201.936 194.04 200.592 194.712C199.248 195.384 197.616 195.72 195.696 195.72C192.912 195.72 190.536 195.048 188.568 193.704C186.648 192.36 185.184 190.56 184.176 188.304C183.168 186.048 182.664 183.528 182.664 180.744C182.664 177.912 183.168 175.368 184.176 173.112C185.184 170.808 186.672 169.008 188.64 167.712C190.608 166.416 192.984 165.768 195.768 165.768C197.736 165.768 199.392 166.104 200.736 166.776C202.128 167.448 203.232 168.264 204.048 169.224C204.912 170.184 205.536 171.096 205.92 171.96C206.352 172.776 206.616 173.352 206.712 173.688H206.856V165.768H210.312V201.264C210.312 202.32 210.192 203.232 209.952 204C209.712 204.816 209.28 205.44 208.656 205.872C208.08 206.304 207.216 206.52 206.064 206.52H191.52ZM196.128 192.624C198.096 192.624 199.872 192.168 201.456 191.256C203.088 190.344 204.384 189 205.344 187.224C206.304 185.4 206.784 183.24 206.784 180.744C206.784 178.248 206.328 176.136 205.416 174.408C204.504 172.632 203.28 171.288 201.744 170.376C200.256 169.416 198.528 168.936 196.56 168.936C194.16 168.936 192.168 169.512 190.584 170.664C189 171.768 187.824 173.232 187.056 175.056C186.288 176.832 185.904 178.728 185.904 180.744C185.904 182.712 186.24 184.632 186.912 186.504C187.632 188.328 188.736 189.816 190.224 190.968C191.76 192.072 193.728 192.624 196.128 192.624ZM233.184 195.648C230.496 195.648 228.264 194.976 226.488 193.632C224.712 192.288 223.392 190.488 222.528 188.232C221.664 185.928 221.232 183.384 221.232 180.6C221.232 177.672 221.664 175.08 222.528 172.824C223.44 170.568 224.784 168.792 226.56 167.496C228.384 166.152 230.592 165.48 233.184 165.48C234.624 165.48 235.896 165.672 237 166.056C238.104 166.44 239.088 166.944 239.952 167.568C240.816 168.192 241.536 168.912 242.112 169.728C242.736 170.496 243.216 171.336 243.552 172.248H243.624V165.768H247.008V195H244.272L243.696 188.952H243.552C243.168 189.816 242.664 190.656 242.04 191.472C241.464 192.24 240.744 192.96 239.88 193.632C239.016 194.256 238.032 194.736 236.928 195.072C235.824 195.456 234.576 195.648 233.184 195.648ZM234.408 192.624C236.472 192.624 238.176 192.144 239.52 191.184C240.912 190.224 241.944 188.856 242.616 187.08C243.288 185.256 243.624 183.12 243.624 180.672C243.624 177.984 243.264 175.776 242.544 174.048C241.824 172.272 240.768 170.928 239.376 170.016C238.032 169.104 236.376 168.648 234.408 168.648C232.152 168.648 230.28 169.176 228.792 170.232C227.352 171.288 226.272 172.704 225.552 174.48C224.88 176.256 224.544 178.296 224.544 180.6C224.544 182.952 224.904 185.04 225.624 186.864C226.344 188.688 227.424 190.104 228.864 191.112C230.352 192.12 232.2 192.624 234.408 192.624ZM259.494 195V165.768H262.302L262.806 174.192L262.734 180.456V195H259.494ZM262.734 180.888L262.518 174.552C262.614 173.4 262.902 172.296 263.382 171.24C263.91 170.184 264.63 169.248 265.542 168.432C266.502 167.616 267.63 166.968 268.926 166.488C270.27 166.008 271.83 165.768 273.606 165.768H275.19V169.44H273.606C271.158 169.44 269.19 169.752 267.702 170.376C266.262 170.952 265.182 171.768 264.462 172.824C263.742 173.832 263.262 175.032 263.022 176.424C262.83 177.816 262.734 179.304 262.734 180.888ZM288.979 195.648C288.115 195.648 287.515 195.408 287.179 194.928C286.891 194.448 286.747 193.848 286.747 193.128C286.747 192.504 286.891 191.976 287.179 191.544C287.515 191.064 288.115 190.824 288.979 190.824C289.795 190.824 290.347 191.064 290.635 191.544C290.923 191.976 291.067 192.504 291.067 193.128C291.067 193.848 290.923 194.448 290.635 194.928C290.347 195.408 289.795 195.648 288.979 195.648ZM287.755 186.072C287.611 180.888 287.419 176.472 287.179 172.824C286.987 169.176 286.819 166.152 286.675 163.752C286.579 161.352 286.555 159.48 286.603 158.136C286.699 156.792 286.915 155.856 287.251 155.328C287.587 154.752 288.139 154.464 288.907 154.464C289.579 154.464 290.083 154.752 290.419 155.328C290.803 155.856 291.019 156.792 291.067 158.136C291.115 159.48 291.067 161.352 290.923 163.752C290.827 166.152 290.683 169.176 290.491 172.824C290.347 176.472 290.203 180.888 290.059 186.072C290.059 186.072 289.939 186.048 289.699 186C289.459 185.952 289.195 185.928 288.907 185.928C288.619 185.928 288.355 185.952 288.115 186C287.875 186.048 287.755 186.072 287.755 186.072Z" fill="white" fill-opacity="0.7" shape-rendering="crispEdges"/>
</g>
<defs>
<filter id="filter0_d_3_13" x="0.232056" y="0.464005" width="557.242" height="226.056" filterUnits="userSpaceOnUse" color-interpolation-filters="sRGB">
<feFlood flood-opacity="0" result="BackgroundImageFix"/>
<feColorMatrix in="SourceAlpha" type="matrix" values="0 0 0 0 0 0 0 0 0 0 0 0 0 0 0 0 0 0 127 0" result="hardAlpha"/>
<feOffset dx="10" dy="8"/>
<feGaussianBlur stdDeviation="6"/>
<feComposite in2="hardAlpha" operator="out"/>
<feColorMatrix type="matrix" values="0 0 0 0 0 0 0 0 0 0 0 0 0 0 0 0 0 0 0.25 0"/>
<feBlend mode="normal" in2="BackgroundImageFix" result="effect1_dropShadow_3_13"/>
<feBlend mode="normal" in="SourceGraphic" in2="effect1_dropShadow_3_13" result="shape"/>
</filter>
</defs>
</svg>
